<?xml version="1.0" encoding="UTF-8" standalone="no"?><!DOCTYPE svg PUBLIC "-//W3C//DTD SVG 1.1//EN" "http://www.w3.org/Graphics/SVG/1.1/DTD/svg11.dtd"><svg width="100%" height="100%" viewBox="0 0 271 267" version="1.1" xmlns="http://www.w3.org/2000/svg" xmlns:xlink="http://www.w3.org/1999/xlink" xml:space="preserve" xmlns:serif="http://www.serif.com/" style="fill-rule:evenodd;clip-rule:evenodd;stroke-linecap:round;stroke-linejoin:round;stroke-miterlimit:1.5;"><rect id="export-lilypond" x="2.323" y="0" width="266.667" height="266.667" style="fill:none;"/><path d="M12.29,251.207l0,-170.283l59.095,0l17.047,26.897l172.171,1.705l0,141.681l-248.313,-0Z" style="fill:none;stroke:#000;stroke-width:10.75px;"/><g><g><path d="M68.712,209.452c-9.195,-1.04 -15.476,7.981 -12.803,12.618c5.545,9.62 50.932,10.563 77.027,10.563c13.304,0 32.459,-0.156 48.993,-1.565c3.266,-0.278 -10.661,-8.614 -7.666,-8.998c3.161,-0.405 23.225,7.135 25.937,6.592c7.665,-1.534 13.228,-3.657 14.955,-6.592c4.806,-8.167 -11.672,-11.092 -16.804,-11.079" style="fill:none;stroke:#000;stroke-width:5.92px;"/><g><path d="M93.375,223.719l8.638,-7.158" style="fill:none;stroke:#000;stroke-width:4.1px;"/><path d="M113.965,226.814l6.04,-9.342" style="fill:none;stroke:#000;stroke-width:4.1px;"/></g></g><g><g><path d="M157.14,167.366c-0,-0 19.773,-30.391 18.906,-30.575c0,-0 8.297,22.165 3.158,42.45c-3.523,13.906 -6.59,22.031 -14.533,28.035c-8.053,6.087 -18.262,2.489 -18.262,2.489" style="fill:none;stroke:#000;stroke-width:5.92px;"/><path d="M181.313,161.908c0,0 19.397,-21.11 18.734,-21.37c0,-0 8.154,15.338 1.948,40.487c-3.715,15.052 -11.386,23.756 -19.823,27.908c-8.306,4.089 -15.738,-1.102 -15.738,-1.102" style="fill:none;stroke:#000;stroke-width:5.92px;"/><path d="M133.741,122.545c-0,0 23.527,24.427 22.811,45.924c-0.437,13.139 -5.867,28.608 -9.424,38.359c-1.786,4.898 -13.387,12.884 -13.387,12.884m-0,-97.167c-2.056,0 -23.101,24.427 -22.385,45.924c0.437,13.139 5.867,28.608 9.424,38.359c1.786,4.898 11.079,12.884 12.961,12.884" style="fill:none;stroke:#000;stroke-width:5.92px;"/><path d="M111.272,167.585c-0,-0 -20.277,-30.61 -19.41,-30.794c-0,-0 -8.297,22.165 -3.158,42.45c3.523,13.906 6.59,22.031 14.533,28.035c8.053,6.087 18.713,3.036 18.713,3.036" style="fill:none;stroke:#000;stroke-width:5.92px;"/><path d="M86.594,161.908c0,0 -19.396,-21.11 -18.733,-21.37c-0,-0 -8.154,15.338 -1.948,40.487c3.715,15.052 11.386,23.756 19.823,27.908c8.306,4.089 15.738,-1.102 15.738,-1.102" style="fill:none;stroke:#000;stroke-width:5.92px;"/></g></g></g><path d="M100.236,35.615l-1.626,52.971l43.353,-30.482l-32.108,9.619l-9.619,-32.108Z"/><path d="M109.855,67.723c4.383,-6.713 9.732,-13.233 16.024,-17.563c16.059,-11.051 51.407,-22.27 69.081,-27.879" style="fill:none;stroke:#000;stroke-width:14.36px;"/></svg>